<svg viewBox="0 0 26 25" fill="none" xmlns="http://www.w3.org/2000/svg">
<path d="M7.75 20C6.375 20 5.2625 21.125 5.2625 22.5C5.2625 23.875 6.375 25 7.75 25C9.125 25 10.25 23.875 10.25 22.5C10.25 21.125 9.125 20 7.75 20ZM0.25 0V2.5H2.75L7.25 11.9875L5.5625 15.05C5.3625 15.4 5.25 15.8125 5.25 16.25C5.25 17.625 6.375 18.75 7.75 18.75H22.75V16.25H8.275C8.1 16.25 7.9625 16.1125 7.9625 15.9375L8 15.7875L9.125 13.75H18.4375C19.375 13.75 20.2 13.2375 20.625 12.4625L25.1 4.35C25.2 4.175 25.25 3.9625 25.25 3.75C25.25 3.0625 24.6875 2.5 24 2.5H5.5125L4.3375 0H0.25ZM20.25 20C18.875 20 17.7625 21.125 17.7625 22.5C17.7625 23.875 18.875 25 20.25 25C21.625 25 22.75 23.875 22.75 22.5C22.75 21.125 21.625 20 20.25 20Z" />
</svg>
