<svg width="80" height="78" viewBox="0 0 80 78" fill="none" xmlns="http://www.w3.org/2000/svg">
<g clip-path="url(#clip0_85_214)">
<path d="M19.4141 4.85677C19.1947 4.85332 18.9769 4.89354 18.7732 4.97509C18.5696 5.05665 18.3842 5.17791 18.2279 5.33181C18.0716 5.48571 17.9474 5.66917 17.8627 5.87152C17.778 6.07387 17.7343 6.29105 17.7344 6.51042V10.2604L12.8841 15.1107V4.47917C12.8828 3.28871 13.3533 2.14626 14.1927 1.30208C15.0399 0.47202 16.1773 0.00492052 17.3633 0L75.5208 0C76.7069 0.00492052 77.8443 0.47202 78.6914 1.30208C79.5136 2.15177 79.9795 3.28387 79.9935 4.46615V52.2396C79.9935 53.431 79.7005 54.8047 78.6914 55.4102C77.849 56.2434 76.7122 56.7112 75.5273 56.7122H40.1562C39.9416 55.5645 39.5874 54.4472 39.1016 53.3854L40.6641 51.8294H73.5091C73.9443 51.826 74.3606 51.6512 74.6677 51.3428C74.9748 51.0345 75.148 50.6175 75.1497 50.1823V6.51042C75.1497 6.07184 74.9755 5.65123 74.6654 5.34111C74.3553 5.03099 73.9347 4.85677 73.4961 4.85677H64.5117V22.0638L55.0195 17.3177L45.5729 22.0638V4.85677H19.4141ZM6.08073 50.5859L4.01042 62.3047C3.98175 62.4579 3.91453 62.6013 3.8151 62.7214C3.28282 63.3278 2.92111 64.0647 2.76693 64.8568C2.70768 65.0652 2.70669 65.2858 2.76409 65.4947C2.82148 65.7036 2.93505 65.8928 3.09245 66.0417L10.599 73.5677C11.0977 74.0563 11.7337 74.3811 12.4219 74.4987C13.2144 74.742 14.0579 74.7667 14.8633 74.5703H14.9219L16.3346 74.2188C18.5026 73.6914 20.3906 73.2227 22.1484 71.6146L24.401 69.2643C24.4278 69.2246 24.4583 69.1875 24.4922 69.1536C24.5247 69.1536 24.7461 68.8997 25.0456 68.6198C26.582 67.1094 28.4961 65.2474 27.3307 63.6198L26.4258 62.7148C25.9896 63.138 25.5273 63.5482 25.0846 63.9518C24.6419 64.3555 24.2969 64.6419 23.9453 64.9935C23.7666 65.1722 23.5242 65.2726 23.2715 65.2726C23.0187 65.2726 22.7764 65.1722 22.5977 64.9935C22.4189 64.8148 22.3185 64.5724 22.3185 64.3197C22.3185 64.0669 22.4189 63.8245 22.5977 63.6458C22.9427 63.2943 23.3789 62.9102 23.8216 62.513C25.3516 61.1719 27.0768 59.6289 26.1589 58.2812L25.2669 57.3893L25.1367 57.2266C24.6224 57.7539 24.056 58.2552 23.5026 58.7435C23.099 59.1016 22.7214 59.4336 22.3698 59.7852C22.1906 59.9629 21.9484 60.0626 21.696 60.0626C21.4436 60.0626 21.2014 59.9629 21.0221 59.7852C20.9326 59.6973 20.8614 59.5924 20.8129 59.4767C20.7643 59.361 20.7393 59.2368 20.7393 59.1113C20.7393 58.9859 20.7643 58.8616 20.8129 58.7459C20.8614 58.6302 20.9326 58.5254 21.0221 58.4375C21.3672 58.0859 21.8034 57.7018 22.2461 57.3112C23.776 55.9635 25.5013 54.4206 24.5833 53.0729L23.6914 52.181C23.6317 52.1176 23.5792 52.0478 23.5352 51.9727L20.931 54.5768C20.7523 54.7555 20.5099 54.8559 20.2572 54.8559C20.0044 54.8559 19.762 54.7555 19.5833 54.5768C19.4046 54.3981 19.3042 54.1557 19.3042 53.903C19.3042 53.6503 19.4046 53.4079 19.5833 53.2292L24.4987 48.3138C25.6771 47.1354 25.944 45.9115 25.638 44.9805C25.5273 44.6419 25.638 44.6354 25.3906 44.3945C25.2672 44.2721 25.1295 44.165 24.9805 44.0755C24.9089 44.0755 24.8568 44.0365 24.7852 43.9648C24.7012 43.9234 24.6141 43.8886 24.5247 43.8607C23.7109 43.5872 22.9362 44.069 21.8685 44.974L21.8229 45.013C21.7057 45.1107 21.5885 45.2148 21.4714 45.332L11.2435 55.5599C11.0643 55.7376 10.8221 55.8373 10.5697 55.8373C10.3173 55.8373 10.0751 55.7376 9.89583 55.5599C9.7321 55.3991 9.63254 55.1842 9.61576 54.9553C9.59899 54.7265 9.66615 54.4993 9.80469 54.3164L6.08073 50.5859ZM12.2396 51.2891L12.5716 50.9635L19.2969 44.2318C18.0213 43.6577 16.9625 42.6911 16.275 41.4729C15.5875 40.2547 15.3072 38.8487 15.475 37.46C15.6428 36.0713 16.25 34.7726 17.2079 33.7532C18.1659 32.7339 19.4244 32.0473 20.8001 31.7937C22.1757 31.54 23.5963 31.7325 24.8548 32.3432C26.1133 32.9538 27.1438 33.9506 27.7959 35.1881C28.448 36.4256 28.6876 37.8391 28.4798 39.2224C28.2719 40.6057 27.6276 41.8863 26.6406 42.8776L26.5755 42.9427C26.6286 42.9871 26.6786 43.0349 26.7253 43.0859C26.9326 43.2825 27.1181 43.5007 27.2786 43.737L35.625 35.4232C35.0115 34.8039 34.6674 33.9674 34.6674 33.0957C34.6674 32.224 35.0115 31.3875 35.625 30.7682L29.4076 24.5508C28.791 25.167 27.955 25.5132 27.0833 25.5132C26.2116 25.5132 25.3756 25.167 24.7591 24.5508L7.46094 41.849C8.07439 42.4683 8.41854 43.3047 8.41854 44.1764C8.41854 45.0481 8.07439 45.8846 7.46094 46.5039L12.2396 51.2891ZM26.9141 49.0755C26.6774 49.4068 26.4116 49.7162 26.1198 50L25.1497 50.9766C25.2252 51.0201 25.2951 51.0726 25.3581 51.1328L26.2891 52.0703C26.3397 52.1225 26.3855 52.1791 26.4258 52.2396C26.8803 52.7811 27.1433 53.4576 27.1739 54.164C27.2045 54.8703 27.001 55.567 26.5951 56.1458C26.7248 56.1936 26.8426 56.2692 26.9401 56.3672L27.8711 57.2982C27.9222 57.3522 27.968 57.4111 28.0078 57.474C28.4866 58.0564 28.7483 58.787 28.7483 59.541C28.7483 60.295 28.4866 61.0256 28.0078 61.6081C28.05 61.6367 28.0892 61.6694 28.125 61.7057L29.056 62.6367C29.1051 62.6925 29.1508 62.7512 29.1927 62.8125C31.3607 65.7747 28.776 68.2878 26.6992 70.319L26.1654 70.8529L23.8542 73.2812L23.776 73.3529C21.6602 75.306 19.5573 75.7878 17.1289 76.3802L15.7422 76.7253H15.7031C14.5446 77.0701 13.3245 77.1568 12.1289 76.9792C11.0571 76.7966 10.068 76.2873 9.29688 75.5208L1.23047 67.4154C0.83872 67.0522 0.551245 66.5908 0.397849 66.0791C0.244453 65.5674 0.23072 65.024 0.358073 64.5052C0.652184 63.38 1.19753 62.336 1.95312 61.4518L4.07552 49.2318V49.1797C4.07552 49.0299 4.1276 48.8607 4.16016 48.6719L0 44.5182L27.4479 17.0703L43.1836 32.806L26.9076 49.082L26.9141 49.0755Z" fill="#DDD5C6"/>
</g>
<defs>
<clipPath id="clip0_85_214">
<rect width="80" height="77.0443" fill="white"/>
</clipPath>
</defs>
</svg>
