<svg width="24" height="25" viewBox="0 0 24 25" fill="none" xmlns="http://www.w3.org/2000/svg">
<path d="M23.933 7.05387C23.8754 5.77605 23.669 4.90175 23.3761 4.13794C23.0689 3.35011 22.6608 2.67757 21.9934 2.01464C21.3261 1.35171 20.6588 0.933777 19.8714 0.631135C19.1081 0.333296 18.2343 0.131535 16.9572 0.0738887C15.6754 0.0162426 15.2673 0.00183105 12.0122 0.00183105C8.7524 0.00183105 8.34431 0.0162426 7.06726 0.0738887C5.7902 0.131535 4.91643 0.3381 4.15308 0.631135C3.36092 0.938581 2.68878 1.34691 2.02625 2.01464C1.36372 2.68238 0.946035 3.35011 0.643574 4.13794C0.350716 4.90175 0.144274 5.77605 0.0866628 7.05387C0.0290513 8.3365 0.0146484 8.74483 0.0146484 12.0018C0.0146484 15.2636 0.0290513 15.672 0.0866628 16.9498C0.144274 18.2276 0.350716 19.1019 0.643574 19.8657C0.950836 20.6536 1.35892 21.3261 2.02625 21.989C2.68878 22.6568 3.36092 23.0699 4.14827 23.3725C4.91163 23.6704 5.7854 23.8721 7.06246 23.9298C8.34431 23.9874 8.7524 24.0018 12.0074 24.0018C15.2673 24.0018 15.6754 23.9874 16.9524 23.9298C18.2295 23.8721 19.1033 23.6656 19.8666 23.3725C20.654 23.0651 21.3261 22.6568 21.9886 21.989C22.6512 21.3213 23.0689 20.6536 23.3713 19.8657C23.669 19.1019 23.8706 18.2276 23.9282 16.9498C23.9858 15.6672 24.0002 15.2588 24.0002 12.0018C24.0002 8.74483 23.9906 8.3317 23.933 7.05387ZM21.7774 16.8537C21.7246 18.0259 21.5278 18.6648 21.3645 19.0827C21.1485 19.6399 20.8844 20.0435 20.4619 20.4662C20.0395 20.8889 19.641 21.1435 19.0793 21.3693C18.6568 21.5327 18.0182 21.7296 16.8516 21.7825C15.589 21.8401 15.2097 21.8545 12.0026 21.8545C8.7956 21.8545 8.41633 21.8401 7.15368 21.7825C5.98224 21.7296 5.34371 21.5327 4.92603 21.3693C4.36912 21.1532 3.96584 20.8889 3.54335 20.4662C3.12087 20.0435 2.86642 19.6447 2.64077 19.0827C2.47754 18.66 2.2807 18.021 2.22789 16.8537C2.17028 15.5903 2.15588 15.2108 2.15588 12.0018C2.15588 8.79286 2.17028 8.41336 2.22789 7.14995C2.2807 5.97781 2.47754 5.3389 2.64077 4.92097C2.85682 4.36372 3.12087 3.9602 3.54335 3.53746C3.96584 3.11472 4.36432 2.86012 4.92603 2.63434C5.34852 2.47101 5.98704 2.27405 7.15368 2.22121C8.41633 2.16356 8.7956 2.14915 12.0026 2.14915C15.2097 2.14915 15.589 2.16356 16.8516 2.22121C18.0231 2.27405 18.6616 2.47101 19.0793 2.63434C19.6362 2.85051 20.0395 3.11472 20.4619 3.53746C20.8844 3.9602 21.1389 4.35892 21.3645 4.92097C21.5278 5.34371 21.7246 5.98262 21.7774 7.14995C21.835 8.41336 21.8494 8.79286 21.8494 12.0018C21.8494 15.2108 21.8302 15.5903 21.7774 16.8537Z" fill="#705A66"/>
<path d="M12.0023 5.83386C8.59364 5.83386 5.83789 8.59607 5.83789 12.002C5.83789 15.4127 8.59844 18.1701 12.0023 18.1701C15.4062 18.1701 18.1668 15.4031 18.1668 12.002C18.1668 8.59127 15.411 5.83386 12.0023 5.83386ZM12.0023 16.0036C9.79388 16.0036 8.00312 14.2118 8.00312 12.002C8.00312 9.79223 9.79388 8.0004 12.0023 8.0004C14.2108 8.0004 16.0015 9.79223 16.0015 12.002C16.0015 14.2118 14.2108 16.0036 12.0023 16.0036Z" fill="#705A66"/>
<path d="M18.4071 7.03465C19.2025 7.03465 19.8474 6.38942 19.8474 5.5935C19.8474 4.79757 19.2025 4.15234 18.4071 4.15234C17.6116 4.15234 16.9668 4.79757 16.9668 5.5935C16.9668 6.38942 17.6116 7.03465 18.4071 7.03465Z" fill="#705A66"/>
</svg>
