<svg width="86" height="86" viewBox="0 0 86 86" fill="none" xmlns="http://www.w3.org/2000/svg">
<path fill-rule="evenodd" clip-rule="evenodd" d="M18.8125 64.5366C18.0997 64.5366 17.4162 64.8197 16.9122 65.3237C16.4082 65.8277 16.125 66.5114 16.125 67.2241C16.125 67.9369 16.4082 68.6204 16.9122 69.1244C17.4162 69.6284 18.0997 69.9116 18.8125 69.9116H34.9375C35.6503 69.9116 36.3338 69.6284 36.8378 69.1244C37.3418 68.6204 37.625 67.9369 37.625 67.2241C37.625 66.5114 37.3418 65.8277 36.8378 65.3237C36.3338 64.8197 35.6503 64.5366 34.9375 64.5366H18.8125Z" fill="#DDD5C6"/>
<path fill-rule="evenodd" clip-rule="evenodd" d="M16.1253 5.41162C15.6256 5.41208 15.136 5.55181 14.7113 5.81514C14.2866 6.07847 13.9438 6.45496 13.7213 6.90234L5.65878 23.1218C5.48774 23.4756 5.39634 23.8627 5.39108 24.2556C5.38545 24.2765 5.38012 24.2975 5.375 24.3185V77.974C5.37507 78.6867 5.6582 79.3703 6.16219 79.8743C6.66618 80.3783 7.34975 80.6614 8.0625 80.6615H77.9375C78.6502 80.6614 79.3337 80.3783 79.8377 79.8743C80.3417 79.3703 80.6249 78.6867 80.625 77.974V24.3185V24.3131C80.6235 23.8994 80.5265 23.4916 80.3416 23.1216L72.2791 6.9021C72.0565 6.45481 71.7137 6.07842 71.2891 5.81514C70.8645 5.55186 70.3749 5.41212 69.8753 5.41162H16.1253ZM17.784 10.7866H34.4707L32.7122 21.6311H12.3985L17.784 10.7866ZM39.9087 10.7866H51.4723L53.2832 21.6311H38.1555L39.9087 10.7866ZM56.9207 10.7866H68.2114L73.6021 21.6311H58.7317L56.9207 10.7866ZM10.7503 27.0061H32.2503V53.7866C32.2505 54.318 32.4083 54.8374 32.7036 55.2792C32.999 55.721 33.4186 56.0654 33.9096 56.2687C34.4006 56.4721 34.9408 56.5254 35.462 56.4218C35.9832 56.3182 36.4621 56.0624 36.838 55.6868L45.6878 46.8369L54.5377 55.6868C54.9136 56.0624 55.3924 56.3182 55.9137 56.4218C56.4349 56.5254 56.9751 56.4721 57.4661 56.2687C57.957 56.0654 58.3767 55.721 58.672 55.2792C58.9674 54.8374 59.1251 54.318 59.1253 53.7866V27.0061H75.2503V75.2866H10.7503V27.0061ZM37.6253 27.0061H53.7503V47.2988L47.588 41.1365C47.084 40.6327 46.4005 40.3496 45.6878 40.3496C44.9752 40.3496 44.2917 40.6327 43.7877 41.1365L37.6253 47.2988V27.0061Z" fill="#DDD5C6"/>
</svg>
